# xmcd
#
# Track frame offsets:
#	150
#	16505
#	48862
#	83660
#	124625
#
# Disc length: 2044 seconds
#
# Revision: 1
# Processed by: cddbd v1.5.2PL0 Copyright (c) Steve Scherf et al.
# Submitted via: audiograbber 1.83.01
#
DISCID=2807fa05
DTITLE=Deja Vu - CD Single
DYEAR=1994
DGENRE=
TTITLE0=Speed Of Love (Spruced Up Edit)
TTITLE1=Speed Of Love (Spruced Up Mix)
TTITLE2=Speed Of Love (Sprucesters Dub)
TTITLE3=Speed Of Love (Shine Eye Mix)
TTITLE4=Speed Of Love (Grinstretcher Mix)
EXTD=
EXTT0=
EXTT1=
EXTT2=
EXTT3=
EXTT4=
PLAYORDER=
